<svg width="19" height="19" viewBox="0 0 19 19" fill="none" xmlns="http://www.w3.org/2000/svg">
<path d="M9.33008 2.2345C5.20412 2.2345 1.85938 5.57924 1.85938 9.7052C1.85938 13.8312 5.20412 17.1759 9.33008 17.1759C13.456 17.1759 16.8008 13.8312 16.8008 9.7052C16.8008 5.57924 13.456 2.2345 9.33008 2.2345Z" stroke="#5D6770" stroke-width="1.12061" stroke-linecap="round" stroke-linejoin="round"/>
<path d="M3.55597 14.4459C3.55597 14.4459 5.22121 12.3199 9.3301 12.3199C13.439 12.3199 15.1042 14.4459 15.1042 14.4459" stroke="#5D6770" stroke-width="1.12061" stroke-linecap="round" stroke-linejoin="round"/>
<path d="M9.33008 9.7052C10.5679 9.7052 11.5713 8.70178 11.5713 7.46399C11.5713 6.2262 10.5679 5.22278 9.33008 5.22278C8.09229 5.22278 7.08887 6.2262 7.08887 7.46399C7.08887 8.70178 8.09229 9.7052 9.33008 9.7052Z" stroke="#5D6770" stroke-width="1.12061" stroke-linecap="round" stroke-linejoin="round"/>
</svg>
