<svg width="19" height="19" viewBox="0 0 19 19" fill="none" xmlns="http://www.w3.org/2000/svg">
<path d="M9.33008 11.929C10.5679 11.929 11.5713 10.9256 11.5713 9.68777C11.5713 8.44999 10.5679 7.44656 9.33008 7.44656C8.09229 7.44656 7.08887 8.44999 7.08887 9.68777C7.08887 10.9256 8.09229 11.929 9.33008 11.929Z" stroke="#5D6770" stroke-width="1.12061" stroke-linecap="round" stroke-linejoin="round"/>
<path d="M15.0245 8.48902L14.2045 6.50884L15.3066 5.20535L13.8125 3.71121L12.5161 4.81908L10.4938 3.98743L10.0288 2.21707H8.5688L8.09673 4.01088L6.12097 4.84374L4.84766 3.71121L3.35352 5.20535L4.43928 6.54175L3.6318 8.52707L1.85938 8.9407V10.4348L3.65318 10.9246L4.48589 12.9L3.35352 14.1702L4.84766 15.6643L6.18578 14.5738L8.13253 15.3747L8.58301 17.1585H10.0771L10.5288 15.3754L12.509 14.5553C12.839 14.7912 13.8125 15.6643 13.8125 15.6643L15.3066 14.1702L14.1979 12.8624L15.0182 10.8816L16.8007 10.4178L16.8008 8.9407L15.0245 8.48902Z" stroke="#5D6770" stroke-width="1.12061" stroke-linecap="round" stroke-linejoin="round"/>
</svg>
