<svg width="16" height="16" viewBox="0 0 16 16" fill="none" xmlns="http://www.w3.org/2000/svg">
<path d="M5.0249 10.019C5.36873 10.019 5.64746 9.74031 5.64746 9.39648C5.64746 9.05265 5.36873 8.77393 5.0249 8.77393C4.68107 8.77393 4.40234 9.05265 4.40234 9.39648C4.40234 9.74031 4.68107 10.019 5.0249 10.019Z" fill="#ED5846" stroke="#ED5846" stroke-width="1.12061" stroke-linecap="round" stroke-linejoin="round"/>
<path d="M1.91211 6.28369V4.2417C1.91211 3.99414 2.11279 3.79346 2.36035 3.79346H13.915C14.1626 3.79346 14.3633 3.99414 14.3633 4.2417V6.28369M1.91211 6.28369V12.061C1.91211 12.3086 2.11279 12.5093 2.36035 12.5093H13.915C14.1626 12.5093 14.3633 12.3086 14.3633 12.061V6.28369M1.91211 6.28369H14.3633" stroke="#ED5846" stroke-width="1.12061" stroke-linecap="round" stroke-linejoin="round"/>
</svg>
