<svg width="19" height="19" viewBox="0 0 19 19" fill="none" xmlns="http://www.w3.org/2000/svg">
<path d="M5.59473 11.9639C6.00732 11.9639 6.3418 11.6294 6.3418 11.2168C6.3418 10.8042 6.00732 10.4697 5.59473 10.4697C5.18213 10.4697 4.84766 10.8042 4.84766 11.2168C4.84766 11.6294 5.18213 11.9639 5.59473 11.9639Z" fill="#5D6770" stroke="#5D6770" stroke-width="1.12061" stroke-linecap="round" stroke-linejoin="round"/>
<path d="M1.85938 7.48145V4.94141C1.85938 4.69385 2.06006 4.49316 2.30762 4.49316H16.3525C16.6001 4.49316 16.8008 4.69385 16.8008 4.94141V7.48145M1.85938 7.48145V14.5039C1.85938 14.7515 2.06006 14.9521 2.30762 14.9521H16.3525C16.6001 14.9521 16.8008 14.7515 16.8008 14.5039V7.48145M1.85938 7.48145H16.8008" stroke="#5D6770" stroke-width="1.12061" stroke-linecap="round" stroke-linejoin="round"/>
</svg>
