<svg width="19" height="19" viewBox="0 0 19 19" fill="none" xmlns="http://www.w3.org/2000/svg">
<path d="M9.33008 17.2108C13.456 17.2108 16.8008 13.8661 16.8008 9.74011C16.8008 5.61416 13.456 2.26941 9.33008 2.26941C5.20412 2.26941 1.85938 5.61416 1.85938 9.74011C1.85938 13.8661 5.20412 17.2108 9.33008 17.2108Z" stroke="#5D6770" stroke-width="1.12061" stroke-linecap="round" stroke-linejoin="round"/>
<path d="M11.5713 7.12536C11.0596 6.61363 10.1583 6.25768 9.33008 6.2354M7.08887 11.9813C7.57034 12.6233 8.46554 12.9894 9.33008 13.0205M9.33008 6.2354C8.3446 6.20888 7.4624 6.6547 7.4624 7.87244C7.4624 10.1136 11.5713 8.99305 11.5713 11.2343C11.5713 12.5125 10.4777 13.0617 9.33008 13.0205M9.33008 6.2354V4.88416M9.33008 13.0205V14.5961" stroke="#5D6770" stroke-width="1.12061" stroke-linecap="round" stroke-linejoin="round"/>
</svg>
