<svg width="15" height="16" viewBox="0 0 15 16" fill="none" xmlns="http://www.w3.org/2000/svg">
<path d="M5.08887 14.4952H9.57129M5.08887 14.4952V10.7599M5.08887 14.4952H1.05469C0.80713 14.4952 0.606445 14.2946 0.606445 14.047V11.2081C0.606445 10.9606 0.80713 10.7599 1.05469 10.7599H5.08887M9.57129 14.4952V5.5304M9.57129 14.4952H13.6055C13.853 14.4952 14.0537 14.2946 14.0537 14.047V1.49622C14.0537 1.24866 13.853 1.04797 13.6055 1.04797H10.0195C9.77197 1.04797 9.57129 1.24866 9.57129 1.49622V5.5304M9.57129 5.5304H5.53711C5.28955 5.5304 5.08887 5.73108 5.08887 5.97864V10.7599" stroke="#ED5846" stroke-width="1.12061"/>
</svg>
