<svg width="19" height="19" viewBox="0 0 19 19" fill="none" xmlns="http://www.w3.org/2000/svg">
<path d="M10.8242 4.52808H16.3525C16.6001 4.52808 16.8008 4.72876 16.8008 4.97632V14.5388C16.8008 14.7864 16.6001 14.9871 16.3525 14.9871H10.8242M10.8242 4.52808V14.9871M10.8242 4.52808H7.83594M10.8242 14.9871H7.83594M7.83594 14.9871H2.30762C2.06006 14.9871 1.85938 14.7864 1.85938 14.5388V4.97632C1.85938 4.72876 2.06006 4.52808 2.30762 4.52808H7.83594M7.83594 14.9871V4.52808" stroke="#5D6770" stroke-width="1.12061" stroke-linecap="round" stroke-linejoin="round"/>
<path d="M5.59473 8.15034C5.59473 7.84099 5.28605 7.62858 5.03488 7.80917C4.46906 8.21599 4.10059 8.88001 4.10059 9.63009C4.10059 10.3802 4.46906 11.0442 5.03488 11.451C5.28605 11.6316 5.59473 11.4193 5.59473 11.1099C5.59473 10.1731 5.59473 9.29196 5.59473 8.15034Z" fill="#5D6770"/>
<path d="M13.0654 8.15034C13.0654 7.84099 13.3741 7.62858 13.6253 7.80917C14.1911 8.21599 14.5596 8.88001 14.5596 9.63009C14.5596 10.3802 14.1911 11.0442 13.6253 11.451C13.3741 11.6316 13.0654 11.4193 13.0654 11.1099C13.0654 10.1731 13.0654 9.29196 13.0654 8.15034Z" fill="#5D6770"/>
</svg>
